<svg aria-hidden="true" style="position: absolute; width: 0; height: 0; overflow: hidden;" version="1.1" xmlns="http://www.w3.org/2000/svg" xmlns:xlink="http://www.w3.org/1999/xlink">
<defs>
<symbol id="icon-email" viewBox="0 0 20 20">
<path d="M14.608 12.172c0 0.84 0.239 1.175 0.864 1.175 1.393 0 2.28-1.775 2.28-4.727 0-4.512-3.288-6.672-7.393-6.672-4.223 0-8.064 2.832-8.064 8.184 0 5.112 3.36 7.896 8.52 7.896 1.752 0 2.928-0.192 4.727-0.792l0.386 1.607c-1.776 0.577-3.674 0.744-5.137 0.744-6.768 0-10.393-3.72-10.393-9.456 0-5.784 4.201-9.72 9.985-9.72 6.024 0 9.215 3.6 9.215 8.016 0 3.744-1.175 6.6-4.871 6.6-1.681 0-2.784-0.672-2.928-2.161-0.432 1.656-1.584 2.161-3.145 2.161-2.088 0-3.84-1.609-3.84-4.848 0-3.264 1.537-5.28 4.297-5.28 1.464 0 2.376 0.576 2.782 1.488l0.697-1.272h2.016v7.057h0.002zM11.657 9.004c0-1.319-0.985-1.872-1.801-1.872-0.888 0-1.871 0.719-1.871 2.832 0 1.68 0.744 2.616 1.871 2.616 0.792 0 1.801-0.504 1.801-1.896v-1.68z"></path>
</symbol>
<symbol id="icon-phone" viewBox="0 0 20 20">
<path d="M13.75 12.5c-1.25 1.25-1.25 2.5-2.5 2.5s-2.5-1.25-3.75-2.5-2.5-2.5-2.5-3.75 1.25-1.25 2.5-2.5-2.5-5-3.75-5-3.75 3.75-3.75 3.75c0 2.5 2.568 7.568 5 10s7.5 5 10 5c0 0 3.75-2.5 3.75-3.75s-3.75-5-5-3.75z"></path>
</symbol>
<symbol id="icon-sphere" viewBox="0 0 20 20">
<path d="M9.375 1.25c-5.178 0-9.375 4.197-9.375 9.375s4.197 9.375 9.375 9.375c5.178 0 9.375-4.197 9.375-9.375s-4.197-9.375-9.375-9.375zM14.679 13.75c0.168-0.79 0.273-1.629 0.308-2.5h2.489c-0.065 0.863-0.266 1.701-0.599 2.5h-2.198zM4.071 7.5c-0.168 0.79-0.273 1.629-0.308 2.5h-2.489c0.065-0.863 0.266-1.701 0.599-2.5h2.198zM13.399 7.5c0.188 0.8 0.301 1.638 0.337 2.5h-3.737v-2.5h3.399zM10 6.25v-3.659c0.285 0.083 0.567 0.222 0.844 0.417 0.519 0.366 1.016 0.93 1.436 1.631 0.291 0.484 0.542 1.024 0.752 1.611h-3.033zM6.469 4.639c0.42-0.701 0.917-1.265 1.436-1.631 0.277-0.195 0.559-0.334 0.844-0.417v3.659h-3.033c0.21-0.587 0.461-1.127 0.752-1.611zM8.75 7.5v2.5h-3.737c0.037-0.862 0.15-1.7 0.337-2.5h3.399zM1.873 13.75c-0.333-0.799-0.534-1.637-0.599-2.5h2.489c0.034 0.871 0.14 1.71 0.308 2.5h-2.198zM5.013 11.25h3.737v2.5h-3.399c-0.188-0.8-0.301-1.638-0.337-2.5zM8.75 15v3.659c-0.285-0.083-0.567-0.222-0.844-0.417-0.519-0.366-1.016-0.93-1.436-1.631-0.291-0.484-0.542-1.024-0.752-1.611h3.033zM12.281 16.611c-0.42 0.701-0.917 1.265-1.436 1.631-0.277 0.195-0.559 0.334-0.844 0.417v-3.659h3.033c-0.21 0.587-0.461 1.127-0.752 1.611zM10 13.75v-2.5h3.737c-0.037 0.862-0.15 1.7-0.337 2.5h-3.399zM14.987 10c-0.034-0.871-0.14-1.71-0.308-2.5h2.198c0.333 0.799 0.534 1.637 0.599 2.5h-2.489zM16.224 6.25h-1.873c-0.364-1.148-0.867-2.154-1.471-2.958 0.831 0.397 1.583 0.93 2.241 1.587 0.42 0.419 0.788 0.878 1.104 1.37zM3.63 4.88c0.657-0.657 1.41-1.19 2.241-1.587-0.604 0.803-1.107 1.81-1.471 2.958h-1.873c0.315-0.493 0.684-0.951 1.104-1.37zM2.526 15h1.873c0.364 1.148 0.867 2.154 1.471 2.958-0.831-0.397-1.583-0.93-2.241-1.587-0.42-0.419-0.788-0.878-1.104-1.37zM15.12 16.37c-0.657 0.657-1.41 1.19-2.241 1.587 0.604-0.803 1.107-1.81 1.471-2.958h1.873c-0.315 0.493-0.684 0.951-1.104 1.37z"></path>
</symbol>
<symbol id="icon-github" viewBox="0 0 20 20">
<path d="M10 0.247c-5.522 0-10 4.477-10 10 0 4.418 2.865 8.167 6.839 9.489 0.5 0.093 0.683-0.217 0.683-0.481 0-0.238-0.009-1.026-0.014-1.862-2.782 0.605-3.369-1.18-3.369-1.18-0.455-1.156-1.11-1.463-1.11-1.463-0.907-0.621 0.069-0.608 0.069-0.608 1.004 0.071 1.533 1.031 1.533 1.031 0.892 1.529 2.339 1.087 2.91 0.831 0.090-0.646 0.349-1.087 0.635-1.337-2.221-0.253-4.556-1.11-4.556-4.942 0-1.092 0.391-1.984 1.030-2.684-0.104-0.252-0.446-1.269 0.097-2.646 0 0 0.84-0.269 2.751 1.025 0.798-0.222 1.653-0.333 2.503-0.337 0.85 0.004 1.706 0.115 2.505 0.337 1.909-1.294 2.747-1.025 2.747-1.025 0.544 1.378 0.202 2.395 0.098 2.646 0.641 0.7 1.029 1.592 1.029 2.684 0 3.841-2.339 4.687-4.566 4.934 0.359 0.31 0.678 0.919 0.678 1.852 0 1.338-0.012 2.415-0.012 2.744 0 0.266 0.18 0.578 0.687 0.48 3.971-1.324 6.833-5.071 6.833-9.488 0-5.523-4.477-10-10-10z"></path>
</symbol>
</defs>
</svg>
